<svg width="1921" height="1158" viewBox="0 0 1921 1158" fill="none" xmlns="http://www.w3.org/2000/svg">
<path d="M1 60.218L1921 40.0936V1158H1V60.218Z" fill="#B4C213"/>
<line x1="0.5" y1="1158" x2="0.499943" y2="1.93641e-08" stroke="white" stroke-opacity="0.2"/>
<line x1="44.1365" y1="1158" x2="44.1364" y2="1.33127e-08" stroke="white" stroke-opacity="0.2"/>
<line x1="87.7727" y1="1158" x2="87.7726" y2="1.33127e-08" stroke="white" stroke-opacity="0.2"/>
<line x1="131.409" y1="1158" x2="131.409" y2="1.33127e-08" stroke="white" stroke-opacity="0.2"/>
<line x1="175.045" y1="1158" x2="175.045" y2="1.33127e-08" stroke="white" stroke-opacity="0.2"/>
<line x1="218.682" y1="1158" x2="218.682" y2="1.33127e-08" stroke="white" stroke-opacity="0.2"/>
<line x1="262.318" y1="1158" x2="262.318" y2="1.33127e-08" stroke="white" stroke-opacity="0.2"/>
<line x1="305.955" y1="1158" x2="305.955" y2="1.33127e-08" stroke="white" stroke-opacity="0.2"/>
<line x1="349.591" y1="1158" x2="349.591" y2="1.33127e-08" stroke="white" stroke-opacity="0.2"/>
<line x1="393.227" y1="1158" x2="393.227" y2="1.33127e-08" stroke="white" stroke-opacity="0.2"/>
<line x1="436.864" y1="1158" x2="436.864" y2="1.33127e-08" stroke="white" stroke-opacity="0.2"/>
<line x1="480.5" y1="1158" x2="480.5" y2="1.33127e-08" stroke="white" stroke-opacity="0.2"/>
<line x1="524.136" y1="1158" x2="524.136" y2="1.33127e-08" stroke="white" stroke-opacity="0.2"/>
<line x1="567.773" y1="1158" x2="567.773" y2="1.33127e-08" stroke="white" stroke-opacity="0.2"/>
<line x1="611.409" y1="1158" x2="611.409" y2="1.33127e-08" stroke="white" stroke-opacity="0.2"/>
<line x1="655.046" y1="1158" x2="655.046" y2="1.33127e-08" stroke="white" stroke-opacity="0.2"/>
<line x1="698.682" y1="1158" x2="698.682" y2="1.33127e-08" stroke="white" stroke-opacity="0.2"/>
<line x1="742.319" y1="1158" x2="742.319" y2="1.33127e-08" stroke="white" stroke-opacity="0.2"/>
<line x1="785.955" y1="1158" x2="785.955" y2="1.33127e-08" stroke="white" stroke-opacity="0.2"/>
<line x1="829.591" y1="1158" x2="829.591" y2="1.33127e-08" stroke="white" stroke-opacity="0.2"/>
<line x1="873.228" y1="1158" x2="873.227" y2="1.33127e-08" stroke="white" stroke-opacity="0.2"/>
<line x1="916.864" y1="1158" x2="916.864" y2="1.33127e-08" stroke="white" stroke-opacity="0.2"/>
<line x1="960.5" y1="1158" x2="960.5" y2="1.33127e-08" stroke="white" stroke-opacity="0.2"/>
<line x1="1004.14" y1="1158" x2="1004.14" y2="1.33127e-08" stroke="white" stroke-opacity="0.2"/>
<line x1="1047.77" y1="1158" x2="1047.77" y2="1.33127e-08" stroke="white" stroke-opacity="0.2"/>
<line x1="1091.41" y1="1158" x2="1091.41" y2="1.33127e-08" stroke="white" stroke-opacity="0.2"/>
<line x1="1135.05" y1="1158" x2="1135.05" y2="1.33127e-08" stroke="white" stroke-opacity="0.2"/>
<line x1="1178.68" y1="1158" x2="1178.68" y2="1.33127e-08" stroke="white" stroke-opacity="0.2"/>
<line x1="1222.32" y1="1158" x2="1222.32" y2="1.33127e-08" stroke="white" stroke-opacity="0.2"/>
<line x1="1265.95" y1="1158" x2="1265.95" y2="1.33127e-08" stroke="white" stroke-opacity="0.2"/>
<line x1="1309.59" y1="1158" x2="1309.59" y2="1.33127e-08" stroke="white" stroke-opacity="0.2"/>
<line x1="1353.23" y1="1158" x2="1353.23" y2="1.33127e-08" stroke="white" stroke-opacity="0.2"/>
<line x1="1396.86" y1="1158" x2="1396.86" y2="1.33127e-08" stroke="white" stroke-opacity="0.2"/>
<line x1="1440.5" y1="1158" x2="1440.5" y2="1.33127e-08" stroke="white" stroke-opacity="0.2"/>
<line x1="1484.14" y1="1158" x2="1484.14" y2="1.33127e-08" stroke="white" stroke-opacity="0.2"/>
<line x1="1527.77" y1="1158" x2="1527.77" y2="1.33127e-08" stroke="white" stroke-opacity="0.2"/>
<line x1="1571.41" y1="1158" x2="1571.41" y2="1.33127e-08" stroke="white" stroke-opacity="0.2"/>
<line x1="1615.05" y1="1158" x2="1615.05" y2="1.33127e-08" stroke="white" stroke-opacity="0.2"/>
<line x1="1658.68" y1="1158" x2="1658.68" y2="1.33127e-08" stroke="white" stroke-opacity="0.2"/>
<line x1="1702.32" y1="1158" x2="1702.32" y2="1.33127e-08" stroke="white" stroke-opacity="0.2"/>
<line x1="1745.95" y1="1158" x2="1745.95" y2="1.33127e-08" stroke="white" stroke-opacity="0.2"/>
<line x1="1789.59" y1="1158" x2="1789.59" y2="1.33127e-08" stroke="white" stroke-opacity="0.2"/>
<line x1="1833.23" y1="1158" x2="1833.23" y2="1.33127e-08" stroke="white" stroke-opacity="0.2"/>
<line x1="1876.86" y1="1158" x2="1876.86" y2="1.33127e-08" stroke="white" stroke-opacity="0.2"/>
<line x1="1920.5" y1="1158" x2="1920.5" y2="1.33127e-08" stroke="white" stroke-opacity="0.2"/>
</svg>
