<svg width="1926" height="326" viewBox="0 0 1926 326" fill="none" xmlns="http://www.w3.org/2000/svg">
<path d="M0.334473 11.2871L1926 11.2871V326L5.99987 314.386L0.334473 11.2871Z" fill="#B4C213"/>
<line x1="5.49976" y1="326" x2="5.4997" y2="5.4514e-09" stroke="white" stroke-opacity="0.2"/>
<line x1="49.1362" y1="326" x2="49.1361" y2="3.7478e-09" stroke="white" stroke-opacity="0.2"/>
<line x1="92.7725" y1="326" x2="92.7724" y2="3.7478e-09" stroke="white" stroke-opacity="0.2"/>
<line x1="136.409" y1="326" x2="136.409" y2="3.7478e-09" stroke="white" stroke-opacity="0.2"/>
<line x1="180.045" y1="326" x2="180.045" y2="3.7478e-09" stroke="white" stroke-opacity="0.2"/>
<line x1="223.682" y1="326" x2="223.682" y2="3.7478e-09" stroke="white" stroke-opacity="0.2"/>
<line x1="267.318" y1="326" x2="267.318" y2="3.7478e-09" stroke="white" stroke-opacity="0.2"/>
<line x1="310.954" y1="326" x2="310.954" y2="3.7478e-09" stroke="white" stroke-opacity="0.2"/>
<line x1="354.591" y1="326" x2="354.591" y2="3.7478e-09" stroke="white" stroke-opacity="0.2"/>
<line x1="398.227" y1="326" x2="398.227" y2="3.7478e-09" stroke="white" stroke-opacity="0.2"/>
<line x1="441.864" y1="326" x2="441.863" y2="3.7478e-09" stroke="white" stroke-opacity="0.2"/>
<line x1="485.5" y1="326" x2="485.5" y2="3.7478e-09" stroke="white" stroke-opacity="0.2"/>
<line x1="529.136" y1="326" x2="529.136" y2="3.7478e-09" stroke="white" stroke-opacity="0.2"/>
<line x1="572.773" y1="326" x2="572.773" y2="3.7478e-09" stroke="white" stroke-opacity="0.2"/>
<line x1="616.409" y1="326" x2="616.409" y2="3.7478e-09" stroke="white" stroke-opacity="0.2"/>
<line x1="660.046" y1="326" x2="660.046" y2="3.7478e-09" stroke="white" stroke-opacity="0.2"/>
<line x1="703.682" y1="326" x2="703.682" y2="3.7478e-09" stroke="white" stroke-opacity="0.2"/>
<line x1="747.318" y1="326" x2="747.318" y2="3.7478e-09" stroke="white" stroke-opacity="0.2"/>
<line x1="790.955" y1="326" x2="790.955" y2="3.7478e-09" stroke="white" stroke-opacity="0.2"/>
<line x1="834.591" y1="326" x2="834.591" y2="3.7478e-09" stroke="white" stroke-opacity="0.2"/>
<line x1="878.227" y1="326" x2="878.227" y2="3.7478e-09" stroke="white" stroke-opacity="0.2"/>
<line x1="921.864" y1="326" x2="921.863" y2="3.7478e-09" stroke="white" stroke-opacity="0.2"/>
<line x1="965.5" y1="326" x2="965.5" y2="3.7478e-09" stroke="white" stroke-opacity="0.2"/>
<line x1="1009.14" y1="326" x2="1009.14" y2="3.7478e-09" stroke="white" stroke-opacity="0.2"/>
<line x1="1052.77" y1="326" x2="1052.77" y2="3.7478e-09" stroke="white" stroke-opacity="0.2"/>
<line x1="1096.41" y1="326" x2="1096.41" y2="3.7478e-09" stroke="white" stroke-opacity="0.2"/>
<line x1="1140.05" y1="326" x2="1140.05" y2="3.7478e-09" stroke="white" stroke-opacity="0.2"/>
<line x1="1183.68" y1="326" x2="1183.68" y2="3.7478e-09" stroke="white" stroke-opacity="0.2"/>
<line x1="1227.32" y1="326" x2="1227.32" y2="3.7478e-09" stroke="white" stroke-opacity="0.2"/>
<line x1="1270.95" y1="326" x2="1270.95" y2="3.7478e-09" stroke="white" stroke-opacity="0.2"/>
<line x1="1314.59" y1="326" x2="1314.59" y2="3.7478e-09" stroke="white" stroke-opacity="0.2"/>
<line x1="1358.23" y1="326" x2="1358.23" y2="3.7478e-09" stroke="white" stroke-opacity="0.2"/>
<line x1="1401.86" y1="326" x2="1401.86" y2="3.7478e-09" stroke="white" stroke-opacity="0.2"/>
<line x1="1445.5" y1="326" x2="1445.5" y2="3.7478e-09" stroke="white" stroke-opacity="0.2"/>
<line x1="1489.14" y1="326" x2="1489.14" y2="3.7478e-09" stroke="white" stroke-opacity="0.2"/>
<line x1="1532.77" y1="326" x2="1532.77" y2="3.7478e-09" stroke="white" stroke-opacity="0.2"/>
<line x1="1576.41" y1="326" x2="1576.41" y2="3.7478e-09" stroke="white" stroke-opacity="0.2"/>
<line x1="1620.05" y1="326" x2="1620.05" y2="3.7478e-09" stroke="white" stroke-opacity="0.2"/>
<line x1="1663.68" y1="326" x2="1663.68" y2="3.7478e-09" stroke="white" stroke-opacity="0.2"/>
<line x1="1707.32" y1="326" x2="1707.32" y2="3.7478e-09" stroke="white" stroke-opacity="0.2"/>
<line x1="1750.95" y1="326" x2="1750.95" y2="3.7478e-09" stroke="white" stroke-opacity="0.2"/>
<line x1="1794.59" y1="326" x2="1794.59" y2="3.7478e-09" stroke="white" stroke-opacity="0.2"/>
<line x1="1838.23" y1="326" x2="1838.23" y2="3.7478e-09" stroke="white" stroke-opacity="0.2"/>
<line x1="1881.86" y1="326" x2="1881.86" y2="3.7478e-09" stroke="white" stroke-opacity="0.2"/>
<line x1="1925.5" y1="326" x2="1925.5" y2="3.7478e-09" stroke="white" stroke-opacity="0.2"/>
</svg>
