<svg width="1027" height="259" viewBox="0 0 1027 259" fill="none" xmlns="http://www.w3.org/2000/svg">
<ellipse cx="923.412" cy="60.0001" rx="0.986551" ry="1" fill="#9BB1E9"/>
<ellipse cx="728.591" cy="50.7258" rx="0.986551" ry="1" fill="#9BB1E9"/>
<ellipse cx="956.955" cy="17.0002" rx="0.986551" ry="1" fill="#9BB1E9"/>
<ellipse cx="762.134" cy="7.72601" rx="0.986551" ry="1" fill="#9BB1E9"/>
<ellipse cx="959.914" cy="108" rx="0.986551" ry="1" fill="#9BB1E9"/>
<ellipse cx="765.094" cy="98.7261" rx="0.986551" ry="1" fill="#9BB1E9"/>
<ellipse cx="910.587" cy="128" rx="0.986551" ry="1" fill="#9BB1E9"/>
<ellipse cx="715.766" cy="118.726" rx="0.986551" ry="1" fill="#9BB1E9"/>
<ellipse cx="979.646" cy="188" rx="0.986551" ry="1" fill="#9BB1E9"/>
<ellipse cx="784.825" cy="178.726" rx="0.986551" ry="1" fill="#9BB1E9"/>
<ellipse cx="940.183" cy="218" rx="0.986551" ry="1" fill="#9BB1E9"/>
<ellipse cx="745.363" cy="208.726" rx="0.986551" ry="1" fill="#9BB1E9"/>
<ellipse cx="880.99" cy="188" rx="0.986551" ry="1" fill="#9BB1E9"/>
<ellipse cx="686.17" cy="178.726" rx="0.986551" ry="1" fill="#9BB1E9"/>
<ellipse cx="817.851" cy="17.0002" rx="0.986551" ry="1" fill="#9BB1E9"/>
<ellipse cx="623.03" cy="7.72601" rx="0.986551" ry="1" fill="#9BB1E9"/>
<ellipse cx="0.999105" cy="0.987458" rx="0.999105" ry="0.987458" transform="matrix(0.255567 -0.966791 0.965039 0.262106 697.162 97.4349)" fill="#9BB1E9"/>
<ellipse cx="0.999105" cy="0.987458" rx="0.999105" ry="0.987458" transform="matrix(0.255567 -0.966791 0.965039 0.262106 502.341 88.1606)" fill="#9BB1E9"/>
<ellipse cx="0.999105" cy="0.987458" rx="0.999105" ry="0.987458" transform="matrix(0.255567 -0.966791 0.965039 0.262106 668.852 15.2061)" fill="#9BB1E9"/>
<ellipse cx="0.999105" cy="0.987458" rx="0.999105" ry="0.987458" transform="matrix(0.255567 -0.966791 0.965039 0.262106 474.031 5.93182)" fill="#9BB1E9"/>
<ellipse cx="0.999105" cy="0.987458" rx="0.999105" ry="0.987458" transform="matrix(0.255567 -0.966791 0.965039 0.262106 756.335 35.8608)" fill="#9BB1E9"/>
<ellipse cx="0.999105" cy="0.987458" rx="0.999105" ry="0.987458" transform="matrix(0.255567 -0.966791 0.965039 0.262106 561.515 26.5865)" fill="#9BB1E9"/>
<ellipse cx="0.999105" cy="0.987458" rx="0.999105" ry="0.987458" transform="matrix(0.255567 -0.966791 0.965039 0.262106 762.627 89.3336)" fill="#9BB1E9"/>
<ellipse cx="0.999105" cy="0.987458" rx="0.999105" ry="0.987458" transform="matrix(0.255567 -0.966791 0.965039 0.262106 567.806 80.0593)" fill="#9BB1E9"/>
<ellipse cx="0.999105" cy="0.987458" rx="0.999105" ry="0.987458" transform="matrix(0.255567 -0.966791 0.965039 0.262106 874.084 19.9319)" fill="#9BB1E9"/>
<ellipse cx="0.999105" cy="0.987458" rx="0.999105" ry="0.987458" transform="matrix(0.255567 -0.966791 0.965039 0.262106 679.264 10.6577)" fill="#9BB1E9"/>
<ellipse cx="0.999105" cy="0.987458" rx="0.999105" ry="0.987458" transform="matrix(0.255567 -0.966791 0.965039 0.262106 856.051 83.6495)" fill="#9BB1E9"/>
<ellipse cx="0.999105" cy="0.987458" rx="0.999105" ry="0.987458" transform="matrix(0.255567 -0.966791 0.965039 0.262106 661.231 74.3752)" fill="#9BB1E9"/>
<ellipse cx="0.999105" cy="0.987458" rx="0.999105" ry="0.987458" transform="matrix(0.255567 -0.966791 0.965039 0.262106 812.143 133.84)" fill="#9BB1E9"/>
<ellipse cx="0.999105" cy="0.987458" rx="0.999105" ry="0.987458" transform="matrix(0.255567 -0.966791 0.965039 0.262106 617.322 124.566)" fill="#9BB1E9"/>
<ellipse cx="0.999105" cy="0.987458" rx="0.999105" ry="0.987458" transform="matrix(0.255567 -0.966791 0.965039 0.262106 632.849 151.402)" fill="#9BB1E9"/>
<ellipse cx="0.999105" cy="0.987458" rx="0.999105" ry="0.987458" transform="matrix(0.255567 -0.966791 0.965039 0.262106 438.029 142.127)" fill="#9BB1E9"/>
<ellipse cx="0.986551" cy="1" rx="0.986551" ry="1" transform="matrix(-1 0 0 1 542.603 99.0001)" fill="#9BB1E9"/>
<ellipse cx="0.986551" cy="1" rx="0.986551" ry="1" transform="matrix(-1 0 0 1 737.424 89.7258)" fill="#9BB1E9"/>
<ellipse cx="0.986551" cy="1" rx="0.986551" ry="1" transform="matrix(-1 0 0 1 509.061 56.0002)" fill="#9BB1E9"/>
<ellipse cx="0.986551" cy="1" rx="0.986551" ry="1" transform="matrix(-1 0 0 1 703.881 46.726)" fill="#9BB1E9"/>
<ellipse cx="0.986551" cy="1" rx="0.986551" ry="1" transform="matrix(-1 0 0 1 506.101 147)" fill="#9BB1E9"/>
<ellipse cx="0.986551" cy="1" rx="0.986551" ry="1" transform="matrix(-1 0 0 1 700.922 137.726)" fill="#9BB1E9"/>
<ellipse cx="0.986551" cy="1" rx="0.986551" ry="1" transform="matrix(-1 0 0 1 555.428 167)" fill="#9BB1E9"/>
<ellipse cx="0.986551" cy="1" rx="0.986551" ry="1" transform="matrix(-1 0 0 1 750.249 157.726)" fill="#9BB1E9"/>
<ellipse cx="0.986551" cy="1" rx="0.986551" ry="1" transform="matrix(-1 0 0 1 486.37 227)" fill="#9BB1E9"/>
<ellipse cx="0.986551" cy="1" rx="0.986551" ry="1" transform="matrix(-1 0 0 1 681.191 217.726)" fill="#9BB1E9"/>
<ellipse cx="0.986551" cy="1" rx="0.986551" ry="1" transform="matrix(-1 0 0 1 525.832 257)" fill="#9BB1E9"/>
<ellipse cx="0.986551" cy="1" rx="0.986551" ry="1" transform="matrix(-1 0 0 1 720.653 247.726)" fill="#9BB1E9"/>
<ellipse cx="0.986551" cy="1" rx="0.986551" ry="1" transform="matrix(-1 0 0 1 585.025 227)" fill="#9BB1E9"/>
<ellipse cx="0.986551" cy="1" rx="0.986551" ry="1" transform="matrix(-1 0 0 1 779.846 217.726)" fill="#9BB1E9"/>
<ellipse cx="0.986551" cy="1" rx="0.986551" ry="1" transform="matrix(-1 0 0 1 648.164 56.0002)" fill="#9BB1E9"/>
<ellipse cx="0.986551" cy="1" rx="0.986551" ry="1" transform="matrix(-1 0 0 1 842.985 46.726)" fill="#9BB1E9"/>
<ellipse cx="0.999105" cy="0.987458" rx="0.999105" ry="0.987458" transform="matrix(-0.255567 -0.966791 -0.965039 0.262106 767.867 137.435)" fill="#9BB1E9"/>
<ellipse cx="0.999105" cy="0.987458" rx="0.999105" ry="0.987458" transform="matrix(-0.255567 -0.966791 -0.965039 0.262106 962.688 128.161)" fill="#9BB1E9"/>
<ellipse cx="0.999105" cy="0.987458" rx="0.999105" ry="0.987458" transform="matrix(-0.255567 -0.966791 -0.965039 0.262106 796.177 55.2061)" fill="#9BB1E9"/>
<ellipse cx="0.999105" cy="0.987458" rx="0.999105" ry="0.987458" transform="matrix(-0.255567 -0.966791 -0.965039 0.262106 990.997 45.9318)" fill="#9BB1E9"/>
<ellipse cx="0.999105" cy="0.987458" rx="0.999105" ry="0.987458" transform="matrix(-0.255567 -0.966791 -0.965039 0.262106 708.693 75.8608)" fill="#9BB1E9"/>
<ellipse cx="0.999105" cy="0.987458" rx="0.999105" ry="0.987458" transform="matrix(-0.255567 -0.966791 -0.965039 0.262106 903.514 66.5865)" fill="#9BB1E9"/>
<ellipse cx="0.999105" cy="0.987458" rx="0.999105" ry="0.987458" transform="matrix(-0.255567 -0.966791 -0.965039 0.262106 702.402 129.334)" fill="#9BB1E9"/>
<ellipse cx="0.999105" cy="0.987458" rx="0.999105" ry="0.987458" transform="matrix(-0.255567 -0.966791 -0.965039 0.262106 897.222 120.059)" fill="#9BB1E9"/>
<ellipse cx="0.999105" cy="0.987458" rx="0.999105" ry="0.987458" transform="matrix(-0.255567 -0.966791 -0.965039 0.262106 590.944 59.9319)" fill="#9BB1E9"/>
<ellipse cx="0.999105" cy="0.987458" rx="0.999105" ry="0.987458" transform="matrix(-0.255567 -0.966791 -0.965039 0.262106 785.765 50.6577)" fill="#9BB1E9"/>
<ellipse cx="0.999105" cy="0.987458" rx="0.999105" ry="0.987458" transform="matrix(-0.255567 -0.966791 -0.965039 0.262106 608.977 123.649)" fill="#9BB1E9"/>
<ellipse cx="0.999105" cy="0.987458" rx="0.999105" ry="0.987458" transform="matrix(-0.255567 -0.966791 -0.965039 0.262106 803.798 114.375)" fill="#9BB1E9"/>
<ellipse cx="0.999105" cy="0.987458" rx="0.999105" ry="0.987458" transform="matrix(-0.255567 -0.966791 -0.965039 0.262106 652.886 173.84)" fill="#9BB1E9"/>
<ellipse cx="0.999105" cy="0.987458" rx="0.999105" ry="0.987458" transform="matrix(-0.255567 -0.966791 -0.965039 0.262106 847.706 164.566)" fill="#9BB1E9"/>
<ellipse cx="0.999105" cy="0.987458" rx="0.999105" ry="0.987458" transform="matrix(-0.255567 -0.966791 -0.965039 0.262106 832.179 191.402)" fill="#9BB1E9"/>
<ellipse cx="0.999105" cy="0.987458" rx="0.999105" ry="0.987458" transform="matrix(-0.255567 -0.966791 -0.965039 0.262106 1027 182.127)" fill="#9BB1E9"/>
<ellipse cx="290.562" cy="46.7258" rx="0.986551" ry="1" fill="#9BB1E9"/>
<ellipse cx="324.105" cy="3.72601" rx="0.986551" ry="1" fill="#9BB1E9"/>
<ellipse cx="327.065" cy="94.7261" rx="0.986551" ry="1" fill="#9BB1E9"/>
<ellipse cx="277.737" cy="114.726" rx="0.986551" ry="1" fill="#9BB1E9"/>
<ellipse cx="346.796" cy="174.726" rx="0.986551" ry="1" fill="#9BB1E9"/>
<ellipse cx="307.334" cy="204.726" rx="0.986551" ry="1" fill="#9BB1E9"/>
<ellipse cx="248.141" cy="174.726" rx="0.986551" ry="1" fill="#9BB1E9"/>
<ellipse cx="185.002" cy="3.72601" rx="0.986551" ry="1" fill="#9BB1E9"/>
<ellipse cx="0.999105" cy="0.987458" rx="0.999105" ry="0.987458" transform="matrix(0.255567 -0.966791 0.965039 0.262106 64.3122 84.1606)" fill="#9BB1E9"/>
<ellipse cx="0.999105" cy="0.987458" rx="0.999105" ry="0.987458" transform="matrix(0.255567 -0.966791 0.965039 0.262106 36.0027 1.93182)" fill="#9BB1E9"/>
<ellipse cx="0.999105" cy="0.987458" rx="0.999105" ry="0.987458" transform="matrix(0.255567 -0.966791 0.965039 0.262106 123.486 22.5865)" fill="#9BB1E9"/>
<ellipse cx="0.999105" cy="0.987458" rx="0.999105" ry="0.987458" transform="matrix(0.255567 -0.966791 0.965039 0.262106 129.778 76.0593)" fill="#9BB1E9"/>
<ellipse cx="0.999105" cy="0.987458" rx="0.999105" ry="0.987458" transform="matrix(0.255567 -0.966791 0.965039 0.262106 241.235 6.65765)" fill="#9BB1E9"/>
<ellipse cx="0.999105" cy="0.987458" rx="0.999105" ry="0.987458" transform="matrix(0.255567 -0.966791 0.965039 0.262106 223.202 70.3752)" fill="#9BB1E9"/>
<ellipse cx="0.999105" cy="0.987458" rx="0.999105" ry="0.987458" transform="matrix(0.255567 -0.966791 0.965039 0.262106 179.294 120.566)" fill="#9BB1E9"/>
<ellipse cx="0.999105" cy="0.987458" rx="0.999105" ry="0.987458" transform="matrix(0.255567 -0.966791 0.965039 0.262106 0 138.127)" fill="#9BB1E9"/>
</svg>
