<svg width="77" height="125" viewBox="0 0 77 125" fill="none" xmlns="http://www.w3.org/2000/svg">
<path d="M0 85.4317V82.6046V10C0 4.47715 4.47715 0 10 0H63C68.5228 0 73 4.47715 73 10V88.4202C73 94.1644 68.172 98.7278 62.437 98.4044L9.43702 95.4158C4.1413 95.1172 0 90.7358 0 85.4317Z" fill="url(#paint0_linear_38_1002)"/>
<g filter="url(#filter0_d_38_1002)">
<path d="M16 91C16 89.8954 16.8954 89 18 89H55C56.1046 89 57 89.8954 57 91V98L16 96V91Z" fill="url(#paint1_linear_38_1002)"/>
</g>
<defs>
<filter id="filter0_d_38_1002" x="6" y="86" width="71" height="39" filterUnits="userSpaceOnUse" color-interpolation-filters="sRGB">
<feFlood flood-opacity="0" result="BackgroundImageFix"/>
<feColorMatrix in="SourceAlpha" type="matrix" values="0 0 0 0 0 0 0 0 0 0 0 0 0 0 0 0 0 0 127 0" result="hardAlpha"/>
<feOffset dx="5" dy="12"/>
<feGaussianBlur stdDeviation="7.5"/>
<feComposite in2="hardAlpha" operator="out"/>
<feColorMatrix type="matrix" values="0 0 0 0 0 0 0 0 0 0 0 0 0 0 0 0 0 0 0.25 0"/>
<feBlend mode="normal" in2="BackgroundImageFix" result="effect1_dropShadow_38_1002"/>
<feBlend mode="normal" in="SourceGraphic" in2="effect1_dropShadow_38_1002" result="shape"/>
</filter>
<linearGradient id="paint0_linear_38_1002" x1="40.9243" y1="9.48497e-06" x2="-3.63129" y2="54.6533" gradientUnits="userSpaceOnUse">
<stop stop-color="white"/>
<stop offset="1" stop-color="#FFD5AA"/>
</linearGradient>
<linearGradient id="paint1_linear_38_1002" x1="36.5" y1="89" x2="36.6899" y2="95.9954" gradientUnits="userSpaceOnUse">
<stop stop-color="#FF992A"/>
<stop offset="1" stop-color="#FE6D08"/>
</linearGradient>
</defs>
</svg>
