<svg width="589" height="255" viewBox="0 0 589 255" fill="none" xmlns="http://www.w3.org/2000/svg">
<ellipse cx="485.412" cy="56" rx="0.986551" ry="1" fill="#FFBB94"/>
<ellipse cx="290.591" cy="46.7258" rx="0.986551" ry="1" fill="#FFBB94"/>
<ellipse cx="518.955" cy="13.0002" rx="0.986551" ry="1" fill="#FFBB94"/>
<ellipse cx="324.134" cy="3.72604" rx="0.986551" ry="1" fill="#FFBB94"/>
<ellipse cx="521.914" cy="104" rx="0.986551" ry="1" fill="#FFBB94"/>
<ellipse cx="327.094" cy="94.726" rx="0.986551" ry="1" fill="#FFBB94"/>
<ellipse cx="472.587" cy="124" rx="0.986551" ry="1" fill="#FFBB94"/>
<ellipse cx="277.766" cy="114.726" rx="0.986551" ry="1" fill="#FFBB94"/>
<ellipse cx="541.646" cy="184" rx="0.986551" ry="1" fill="#FFBB94"/>
<ellipse cx="346.825" cy="174.726" rx="0.986551" ry="1" fill="#FFBB94"/>
<ellipse cx="502.183" cy="214" rx="0.986551" ry="1" fill="#FFBB94"/>
<ellipse cx="307.363" cy="204.726" rx="0.986551" ry="1" fill="#FFBB94"/>
<ellipse cx="442.99" cy="184" rx="0.986551" ry="1" fill="#FFBB94"/>
<ellipse cx="248.17" cy="174.726" rx="0.986551" ry="1" fill="#FFBB94"/>
<ellipse cx="379.851" cy="13.0002" rx="0.986551" ry="1" fill="#FFBB94"/>
<ellipse cx="185.031" cy="3.72604" rx="0.986551" ry="1" fill="#FFBB94"/>
<ellipse cx="0.999105" cy="0.987458" rx="0.999105" ry="0.987458" transform="matrix(0.255567 -0.966791 0.965039 0.262106 259.162 93.435)" fill="#FFBB94"/>
<ellipse cx="0.999105" cy="0.987458" rx="0.999105" ry="0.987458" transform="matrix(0.255567 -0.966791 0.965039 0.262106 64.3408 84.1606)" fill="#FFBB94"/>
<ellipse cx="0.999105" cy="0.987458" rx="0.999105" ry="0.987458" transform="matrix(0.255567 -0.966791 0.965039 0.262106 230.853 11.206)" fill="#FFBB94"/>
<ellipse cx="0.999105" cy="0.987458" rx="0.999105" ry="0.987458" transform="matrix(0.255567 -0.966791 0.965039 0.262106 36.0312 1.93185)" fill="#FFBB94"/>
<ellipse cx="0.999105" cy="0.987458" rx="0.999105" ry="0.987458" transform="matrix(0.255567 -0.966791 0.965039 0.262106 318.335 31.8608)" fill="#FFBB94"/>
<ellipse cx="0.999105" cy="0.987458" rx="0.999105" ry="0.987458" transform="matrix(0.255567 -0.966791 0.965039 0.262106 123.515 22.5866)" fill="#FFBB94"/>
<ellipse cx="0.999105" cy="0.987458" rx="0.999105" ry="0.987458" transform="matrix(0.255567 -0.966791 0.965039 0.262106 324.627 85.3337)" fill="#FFBB94"/>
<ellipse cx="0.999105" cy="0.987458" rx="0.999105" ry="0.987458" transform="matrix(0.255567 -0.966791 0.965039 0.262106 129.807 76.0593)" fill="#FFBB94"/>
<ellipse cx="0.999105" cy="0.987458" rx="0.999105" ry="0.987458" transform="matrix(0.255567 -0.966791 0.965039 0.262106 436.084 15.9319)" fill="#FFBB94"/>
<ellipse cx="0.999105" cy="0.987458" rx="0.999105" ry="0.987458" transform="matrix(0.255567 -0.966791 0.965039 0.262106 241.264 6.65768)" fill="#FFBB94"/>
<ellipse cx="0.999105" cy="0.987458" rx="0.999105" ry="0.987458" transform="matrix(0.255567 -0.966791 0.965039 0.262106 418.052 79.6496)" fill="#FFBB94"/>
<ellipse cx="0.999105" cy="0.987458" rx="0.999105" ry="0.987458" transform="matrix(0.255567 -0.966791 0.965039 0.262106 223.23 70.3752)" fill="#FFBB94"/>
<ellipse cx="0.999105" cy="0.987458" rx="0.999105" ry="0.987458" transform="matrix(0.255567 -0.966791 0.965039 0.262106 374.143 129.841)" fill="#FFBB94"/>
<ellipse cx="0.999105" cy="0.987458" rx="0.999105" ry="0.987458" transform="matrix(0.255567 -0.966791 0.965039 0.262106 179.322 120.566)" fill="#FFBB94"/>
<ellipse cx="0.999105" cy="0.987458" rx="0.999105" ry="0.987458" transform="matrix(0.255567 -0.966791 0.965039 0.262106 194.85 147.402)" fill="#FFBB94"/>
<ellipse cx="0.999105" cy="0.987458" rx="0.999105" ry="0.987458" transform="matrix(0.255567 -0.966791 0.965039 0.262106 0.0288086 138.127)" fill="#FFBB94"/>
<ellipse cx="0.986551" cy="1" rx="0.986551" ry="1" transform="matrix(-1 0 0 1 104.604 95.0002)" fill="#FFBB94"/>
<ellipse cx="0.986551" cy="1" rx="0.986551" ry="1" transform="matrix(-1 0 0 1 299.424 85.7258)" fill="#FFBB94"/>
<ellipse cx="0.986551" cy="1" rx="0.986551" ry="1" transform="matrix(-1 0 0 1 71.0605 52.0002)" fill="#FFBB94"/>
<ellipse cx="0.986551" cy="1" rx="0.986551" ry="1" transform="matrix(-1 0 0 1 265.881 42.726)" fill="#FFBB94"/>
<ellipse cx="0.986551" cy="1" rx="0.986551" ry="1" transform="matrix(-1 0 0 1 68.1006 143)" fill="#FFBB94"/>
<ellipse cx="0.986551" cy="1" rx="0.986551" ry="1" transform="matrix(-1 0 0 1 262.922 133.726)" fill="#FFBB94"/>
<ellipse cx="0.986551" cy="1" rx="0.986551" ry="1" transform="matrix(-1 0 0 1 117.429 163)" fill="#FFBB94"/>
<ellipse cx="0.986551" cy="1" rx="0.986551" ry="1" transform="matrix(-1 0 0 1 312.249 153.726)" fill="#FFBB94"/>
<ellipse cx="0.986551" cy="1" rx="0.986551" ry="1" transform="matrix(-1 0 0 1 48.3696 223)" fill="#FFBB94"/>
<ellipse cx="0.986551" cy="1" rx="0.986551" ry="1" transform="matrix(-1 0 0 1 243.19 213.726)" fill="#FFBB94"/>
<ellipse cx="0.986551" cy="1" rx="0.986551" ry="1" transform="matrix(-1 0 0 1 87.832 253)" fill="#FFBB94"/>
<ellipse cx="0.986551" cy="1" rx="0.986551" ry="1" transform="matrix(-1 0 0 1 282.652 243.726)" fill="#FFBB94"/>
<ellipse cx="0.986551" cy="1" rx="0.986551" ry="1" transform="matrix(-1 0 0 1 147.025 223)" fill="#FFBB94"/>
<ellipse cx="0.986551" cy="1" rx="0.986551" ry="1" transform="matrix(-1 0 0 1 341.846 213.726)" fill="#FFBB94"/>
<ellipse cx="0.986551" cy="1" rx="0.986551" ry="1" transform="matrix(-1 0 0 1 210.164 52.0002)" fill="#FFBB94"/>
<ellipse cx="0.986551" cy="1" rx="0.986551" ry="1" transform="matrix(-1 0 0 1 404.985 42.726)" fill="#FFBB94"/>
<ellipse cx="0.999105" cy="0.987458" rx="0.999105" ry="0.987458" transform="matrix(-0.255567 -0.966791 -0.965039 0.262106 329.867 133.435)" fill="#FFBB94"/>
<ellipse cx="0.999105" cy="0.987458" rx="0.999105" ry="0.987458" transform="matrix(-0.255567 -0.966791 -0.965039 0.262106 524.688 124.161)" fill="#FFBB94"/>
<ellipse cx="0.999105" cy="0.987458" rx="0.999105" ry="0.987458" transform="matrix(-0.255567 -0.966791 -0.965039 0.262106 358.177 51.206)" fill="#FFBB94"/>
<ellipse cx="0.999105" cy="0.987458" rx="0.999105" ry="0.987458" transform="matrix(-0.255567 -0.966791 -0.965039 0.262106 552.997 41.9319)" fill="#FFBB94"/>
<ellipse cx="0.999105" cy="0.987458" rx="0.999105" ry="0.987458" transform="matrix(-0.255567 -0.966791 -0.965039 0.262106 270.693 71.8608)" fill="#FFBB94"/>
<ellipse cx="0.999105" cy="0.987458" rx="0.999105" ry="0.987458" transform="matrix(-0.255567 -0.966791 -0.965039 0.262106 465.514 62.5866)" fill="#FFBB94"/>
<ellipse cx="0.999105" cy="0.987458" rx="0.999105" ry="0.987458" transform="matrix(-0.255567 -0.966791 -0.965039 0.262106 264.401 125.334)" fill="#FFBB94"/>
<ellipse cx="0.999105" cy="0.987458" rx="0.999105" ry="0.987458" transform="matrix(-0.255567 -0.966791 -0.965039 0.262106 459.223 116.059)" fill="#FFBB94"/>
<ellipse cx="0.999105" cy="0.987458" rx="0.999105" ry="0.987458" transform="matrix(-0.255567 -0.966791 -0.965039 0.262106 152.944 55.9319)" fill="#FFBB94"/>
<ellipse cx="0.999105" cy="0.987458" rx="0.999105" ry="0.987458" transform="matrix(-0.255567 -0.966791 -0.965039 0.262106 347.765 46.6577)" fill="#FFBB94"/>
<ellipse cx="0.999105" cy="0.987458" rx="0.999105" ry="0.987458" transform="matrix(-0.255567 -0.966791 -0.965039 0.262106 170.978 119.65)" fill="#FFBB94"/>
<ellipse cx="0.999105" cy="0.987458" rx="0.999105" ry="0.987458" transform="matrix(-0.255567 -0.966791 -0.965039 0.262106 365.798 110.375)" fill="#FFBB94"/>
<ellipse cx="0.999105" cy="0.987458" rx="0.999105" ry="0.987458" transform="matrix(-0.255567 -0.966791 -0.965039 0.262106 214.886 169.841)" fill="#FFBB94"/>
<ellipse cx="0.999105" cy="0.987458" rx="0.999105" ry="0.987458" transform="matrix(-0.255567 -0.966791 -0.965039 0.262106 409.706 160.566)" fill="#FFBB94"/>
<ellipse cx="0.999105" cy="0.987458" rx="0.999105" ry="0.987458" transform="matrix(-0.255567 -0.966791 -0.965039 0.262106 394.179 187.402)" fill="#FFBB94"/>
<ellipse cx="0.999105" cy="0.987458" rx="0.999105" ry="0.987458" transform="matrix(-0.255567 -0.966791 -0.965039 0.262106 589 178.127)" fill="#FFBB94"/>
</svg>
